<svg width="18" height="18" viewBox="0 0 18 18" fill="none" xmlns="http://www.w3.org/2000/svg">
<path d="M8.4375 7.92188C8.21875 8.67188 7.875 9.48438 7.40625 10.3594C7.1875 10.7344 7.03125 11.0781 6.9375 11.3906L7.03125 11.3438C8.34375 10.875 9.45312 10.5625 10.3594 10.4062C10.2031 10.3125 10.0625 10.2031 9.9375 10.0781C9.34375 9.57812 8.84375 8.85938 8.4375 7.92188ZM14.9062 11.7656C14.75 11.9531 14.4609 12.0469 14.0391 12.0469C13.6172 12.0469 13.1328 11.9844 12.5859 11.8594C12.0391 11.7344 11.5156 11.5469 11.0156 11.2969C9.32812 11.4844 7.98438 11.7344 6.98438 12.0469L6.79688 12.1406C6.17188 13.2031 5.61719 13.9766 5.13281 14.4609C4.64844 14.9453 4.20312 15.1875 3.79688 15.1875C3.64062 15.1875 3.5 15.1562 3.375 15.0938L2.90625 14.7656L2.85938 14.7188C2.79688 14.5625 2.78125 14.3906 2.8125 14.2031C2.875 13.9219 3.05469 13.5938 3.35156 13.2188C3.64844 12.8438 4.09375 12.4531 4.6875 12.0469C4.875 11.9219 5.17188 11.7656 5.57812 11.5781C5.89062 11.0469 6.21875 10.4531 6.5625 9.79688C7.03125 8.73438 7.39062 7.75 7.64062 6.84375C7.45312 6.25 7.32031 5.71875 7.24219 5.25C7.16406 4.78125 7.21875 4.21875 7.40625 3.5625C7.46875 3.375 7.57031 3.20312 7.71094 3.04688C7.85156 2.89062 8.01562 2.8125 8.20312 2.8125H8.4375C8.6875 2.8125 8.89062 2.89062 9.04688 3.04688C9.35938 3.39062 9.48438 3.90625 9.42188 4.59375C9.35938 5.28125 9.23438 5.96875 9.04688 6.65625V6.79688C9.45312 7.95312 9.98438 8.79688 10.6406 9.32812C10.8906 9.54688 11.1719 9.75 11.4844 9.9375C11.9531 9.875 12.3906 9.84375 12.7969 9.84375C14.0156 9.84375 14.7656 10.0781 15.0469 10.5469C15.1719 10.7031 15.2266 10.8984 15.2109 11.1328C15.1953 11.3672 15.0938 11.5781 14.9062 11.7656ZM15.9844 0H2.01562C1.42188 0 0.9375 0.1875 0.5625 0.5625C0.1875 0.9375 0 1.42188 0 2.01562V15.9844C0 16.5469 0.195313 17.0234 0.585938 17.4141C0.976562 17.8047 1.45312 18 2.01562 18H15.9844C16.5469 18 17.0234 17.8047 17.4141 17.4141C17.8047 17.0234 18 16.5469 18 15.9844V2.01562C18 1.42188 17.8047 0.9375 17.4141 0.5625C17.0234 0.1875 16.5469 0 15.9844 0ZM14.4844 11.0625C14.4531 11 14.3047 10.9219 14.0391 10.8281C13.7734 10.7344 13.2969 10.6875 12.6094 10.6875C12.5469 10.6875 12.4688 10.7188 12.375 10.7812C13.125 11.125 13.75 11.2969 14.25 11.2969H14.4844C14.5469 11.2969 14.5781 11.25 14.5781 11.1562L14.4844 11.0625ZM5.34375 12.5156C5.125 12.6406 4.95312 12.7344 4.82812 12.7969C4.48438 13.1406 4.21094 13.4609 4.00781 13.7578C3.80469 14.0547 3.6875 14.2969 3.65625 14.4844C4.09375 14.3594 4.65625 13.7031 5.34375 12.5156ZM8.34375 5.57812L8.39062 5.53125L8.57812 4.54688C8.70312 4.01562 8.67188 3.65625 8.48438 3.46875L8.34375 3.42188L8.29688 3.5625C8.10938 4 8.125 4.67188 8.34375 5.57812Z" fill="#707070"/>
</svg>
