<svg width="65" height="65" viewBox="0 0 65 65" fill="none" xmlns="http://www.w3.org/2000/svg">
<rect x="0.5" y="0.261536" width="64" height="64" rx="32" fill="url(#paint0_linear_203_49)"/>
<g clip-path="url(#clip0_203_49)">
<path d="M21.125 25.574C21.7083 25.574 22.1875 25.3865 22.5625 25.0115C22.9375 24.6365 23.125 24.1678 23.125 23.6053C23.125 23.0428 22.9375 22.574 22.5625 22.199C22.1875 21.824 21.7188 21.6365 21.1562 21.6365C20.5938 21.6365 20.125 21.824 19.75 22.199C19.375 22.574 19.1875 23.0428 19.1875 23.6053C19.1875 24.1678 19.375 24.6365 19.75 25.0115C20.125 25.3865 20.5833 25.574 21.125 25.574ZM42.375 31.699C42.875 32.199 43.125 32.824 43.125 33.574C43.125 34.324 42.875 34.949 42.375 35.449L33 44.824C32.5 45.324 31.875 45.574 31.125 45.574C30.375 45.574 29.75 45.324 29.25 44.824L17.25 32.824C16.75 32.324 16.5 31.699 16.5 30.949V21.574C16.5 20.824 16.75 20.199 17.25 19.699C17.75 19.199 18.375 18.949 19.125 18.949H28.5C29.25 18.949 29.875 19.199 30.375 19.699L42.375 31.699ZM31.125 42.949L40.5 33.574L29.125 22.2615L19.8125 31.574L31.125 42.949ZM27.25 28.1365L29.125 26.2615L36.5 33.574L34.625 35.449L27.25 28.1365ZM23.9375 31.449L25.8125 29.574L31.125 34.949L29.25 36.824L23.9375 31.449Z" fill="white"/>
</g>
<defs>
<linearGradient id="paint0_linear_203_49" x1="32.5" y1="0.261536" x2="32.5" y2="64.2615" gradientUnits="userSpaceOnUse">
<stop stop-color="#328BC9"/>
<stop offset="1" stop-color="#59CEB5"/>
</linearGradient>
<clipPath id="clip0_203_49">
<rect width="32" height="32" fill="white" transform="matrix(1 0 0 -1 16.5 48.2615)"/>
</clipPath>
</defs>
</svg>
