<?xml version="1.0" standalone="no"?>
<!DOCTYPE svg PUBLIC "-//W3C//DTD SVG 20010904//EN"
 "http://www.w3.org/TR/2001/REC-SVG-20010904/DTD/svg10.dtd">
<svg version="1.0" xmlns="http://www.w3.org/2000/svg"
 width="512.000000pt" height="512.000000pt" viewBox="0 0 512.000000 512.000000"
 preserveAspectRatio="xMidYMid meet">

<g transform="translate(0.000000,512.000000) scale(0.100000,-0.100000)"
fill="#000000" stroke="none">
<path d="M311 5109 c-97 -19 -204 -96 -256 -184 -58 -100 -55 40 -55 -2365 0
-1935 2 -2213 15 -2264 38 -147 157 -258 304 -286 73 -14 2528 -14 2601 0 153
29 281 157 310 310 6 32 10 303 10 680 l0 626 597 86 597 85 28 32 c16 18 28
43 28 59 0 17 -41 99 -106 213 -58 101 -144 250 -191 332 l-85 147 36 40 c175
194 127 523 -99 665 -88 55 -140 70 -245 68 -52 0 -104 -2 -114 -4 -16 -3 -47
44 -172 260 -84 145 -170 293 -191 329 -27 47 -47 69 -71 79 -73 30 -50 55
-681 -750 l-581 -742 -262 -150 c-226 -129 -272 -160 -334 -221 -197 -195
-225 -496 -68 -727 108 -157 279 -246 474 -247 95 0 174 20 268 67 40 20 74
34 76 32 4 -4 167 -283 186 -319 l11 -20 -1071 0 -1070 0 0 1670 0 1670 1420
0 1420 0 0 -25 c0 -58 47 -105 104 -105 14 0 40 13 58 29 l33 29 3 266 c2 155
-1 290 -7 322 -29 156 -156 285 -311 314 -65 12 -2545 12 -2609 -1z m2607
-204 c49 -21 81 -52 103 -100 15 -33 19 -65 19 -182 l0 -143 -1420 0 -1420 0
0 140 c0 186 21 238 115 281 38 18 96 19 1303 19 1117 0 1267 -2 1300 -15z
m800 -2050 c280 -484 508 -881 506 -883 -1 -2 -58 -12 -126 -22 -93 -14 -126
-15 -134 -7 -10 10 -869 1492 -913 1575 -11 20 -5 31 66 122 43 55 81 99 85
98 5 -2 237 -399 516 -883z m-389 -220 c232 -401 418 -731 414 -732 -14 -5
-1126 -163 -1144 -163 -11 0 -81 111 -219 350 l-202 350 178 228 c416 532 549
700 550 699 1 -1 191 -330 423 -732z m547 510 c130 -39 206 -187 162 -316 -27
-82 -26 -83 -146 125 -62 106 -112 196 -112 199 0 11 44 8 96 -8z m-1667
-1156 c103 -179 180 -324 175 -329 -28 -26 -437 -253 -478 -265 -96 -29 -223
-12 -305 39 -51 33 -119 110 -142 160 -25 58 -39 162 -28 219 19 102 81 197
164 250 63 41 418 246 425 246 3 0 88 -144 189 -320z m831 -719 l0 -330 -71 0
-71 0 30 28 c39 37 47 70 29 114 -8 19 -70 130 -137 247 -67 117 -120 214
-117 218 4 4 222 38 330 52 4 1 7 -147 7 -329z m-437 35 c57 -99 109 -190 115
-202 11 -20 6 -25 -75 -72 -48 -28 -91 -47 -94 -43 -26 26 -230 395 -223 402
11 11 167 100 170 97 1 -1 49 -83 107 -182z m437 -757 c0 -209 -8 -246 -61
-295 -61 -56 9 -53 -1359 -53 -1368 0 -1298 -3 -1359 53 -53 49 -61 86 -61
295 l0 192 1420 0 1420 0 0 -192z"/>
<path d="M1224 4790 c-32 -13 -64 -59 -64 -92 0 -21 11 -41 34 -64 l34 -34
391 0 391 0 32 29 c44 39 46 98 5 139 l-27 27 -388 2 c-213 1 -397 -2 -408 -7z"/>
<path d="M1564 562 c-51 -41 -55 -109 -10 -151 67 -63 184 7 162 95 -16 64
-103 96 -152 56z"/>
<path d="M4133 4090 c-12 -5 -29 -19 -37 -32 -20 -32 -86 -281 -86 -327 0
-102 133 -130 182 -37 18 34 78 270 78 309 0 71 -68 115 -137 87z"/>
<path d="M476 3975 c-41 -22 -55 -44 -56 -88 0 -29 7 -45 29 -68 l29 -29 726
0 726 0 31 28 c53 47 39 130 -26 158 -53 22 -1417 21 -1459 -1z"/>
<path d="M4990 3703 c-48 -18 -510 -291 -534 -316 -24 -26 -28 -35 -23 -71 7
-52 44 -86 94 -86 28 0 91 31 287 145 279 161 278 160 295 194 37 69 -44 161
-119 134z"/>
<path d="M476 3495 c-41 -22 -55 -44 -56 -88 0 -29 7 -45 29 -68 l29 -29 522
0 522 0 29 29 c52 53 33 135 -38 162 -14 5 -234 9 -516 9 -420 0 -496 -2 -521
-15z"/>
<path d="M1860 3499 c-96 -38 -69 -189 34 -189 105 0 137 146 41 186 -39 16
-41 16 -75 3z"/>
<path d="M480 3019 c-65 -26 -81 -110 -31 -160 63 -63 171 -16 171 75 0 34
-48 85 -85 91 -16 2 -41 0 -55 -6z"/>
<path d="M875 3023 c-29 -7 -62 -41 -70 -70 -3 -14 -1 -40 5 -59 21 -64 24
-64 469 -64 278 0 408 3 425 11 33 15 59 71 51 108 -3 16 -17 39 -31 52 l-26
24 -401 2 c-221 0 -411 -1 -422 -4z"/>
<path d="M4622 2854 c-38 -15 -52 -41 -52 -92 0 -60 28 -79 187 -124 76 -21
155 -39 175 -40 104 -5 146 132 55 179 -31 16 -216 68 -293 82 -28 5 -52 4
-72 -5z"/>
</g>
</svg>
