<svg width="64" height="65" viewBox="0 0 64 65" fill="none" xmlns="http://www.w3.org/2000/svg">
<rect y="0.261536" width="64" height="64" rx="32" fill="url(#paint0_linear_203_64)"/>
<path d="M27.3125 39.574L22.625 34.949L24.5 33.074L27.3125 35.824L34.25 28.949L36.125 30.824L27.3125 39.574ZM26.625 21.574H32V24.2615H26.625V21.574ZM40 24.2615H34.625V21.574L32 18.949H26.625L24 21.574V24.2615H18.625C17.875 24.2615 17.25 24.5115 16.75 25.0115C16.25 25.5115 16 26.1574 16 26.949V41.574C16 42.3657 16.25 43.0115 16.75 43.5115C17.25 44.0115 17.875 44.2615 18.625 44.2615H40C40.75 44.2615 41.375 44.0115 41.875 43.5115C42.375 43.0115 42.625 42.3657 42.625 41.574V26.949C42.625 26.1574 42.375 25.5115 41.875 25.0115C41.375 24.5115 40.75 24.2615 40 24.2615Z" fill="white"/>
<defs>
<linearGradient id="paint0_linear_203_64" x1="32" y1="0.261536" x2="32" y2="64.2615" gradientUnits="userSpaceOnUse">
<stop stop-color="#328BC9"/>
<stop offset="1" stop-color="#59CEB5"/>
</linearGradient>
</defs>
</svg>
