<svg width="64" height="65" viewBox="0 0 64 65" fill="none" xmlns="http://www.w3.org/2000/svg">
<rect y="0.261536" width="64" height="64" rx="32" fill="url(#paint0_linear_203_34)"/>
<path d="M28.8125 20.074C32.3958 21.7407 35.9792 23.4074 39.5625 25.074L39.875 25.2615C39.9583 25.3032 40 25.3865 40 25.5115C40 25.6365 39.9583 25.7407 39.875 25.824L28.8125 30.949C28.2708 31.199 27.7292 31.199 27.1875 30.949L16.4375 25.949C16.1875 25.9074 16.0417 25.7615 16 25.5115C16.0417 25.3032 16.1875 25.1782 16.4375 25.1365L27.25 20.074C27.4583 19.9907 27.7188 19.949 28.0312 19.949C28.3438 19.949 28.6042 19.9907 28.8125 20.074ZM28 44.449C27.7917 44.449 27.5208 44.3657 27.1875 44.199L16.125 39.074C16.0417 39.0324 16 38.9386 16 38.7928C16 38.647 16.0417 38.5532 16.125 38.5115L18.25 37.5115C18.8333 37.2615 19.4167 37.2824 20 37.574L27.125 40.8865C27.7083 41.1365 28.2917 41.1365 28.875 40.8865L36 37.5115C36.5833 37.2615 37.1667 37.2615 37.75 37.5115L39.625 38.3865C39.7083 38.4282 39.7917 38.4907 39.875 38.574C40.0417 38.7407 40.0521 38.8761 39.9062 38.9803C39.7604 39.0845 39.6458 39.1782 39.5625 39.2615C36.0208 40.9282 32.4583 42.574 28.875 44.199C28.5833 44.3657 28.2917 44.449 28 44.449ZM28 37.824C27.9167 37.824 27.7917 37.8032 27.625 37.7615L27.125 37.574L16.1875 32.449C16.0625 32.4074 16 32.3136 16 32.1678C16 32.022 16.0625 31.9282 16.1875 31.8865L18.25 30.8865C18.8333 30.6365 19.4167 30.6574 20 30.949L27.1875 34.2615C27.7292 34.5115 28.2708 34.5115 28.8125 34.2615L36.0625 30.8865C36.6042 30.6365 37.1667 30.6365 37.75 30.8865L39.625 31.7615L39.875 31.8865C40.0417 32.0532 40.0417 32.2407 39.875 32.449L39.625 32.574C36 34.2407 32.3958 35.9074 28.8125 37.574C28.6875 37.6574 28.5417 37.7199 28.375 37.7615L28 37.824Z" fill="white"/>
<defs>
<linearGradient id="paint0_linear_203_34" x1="32" y1="0.261536" x2="32" y2="64.2615" gradientUnits="userSpaceOnUse">
<stop offset="0.9999" stop-color="#328BC9" stop-opacity="0.7"/>
<stop offset="1" stop-color="#59CEB5"/>
</linearGradient>
</defs>
</svg>
