<svg width="65" height="65" viewBox="0 0 65 65" fill="none" xmlns="http://www.w3.org/2000/svg">
<rect x="0.5" y="0.261536" width="64" height="64" rx="32" fill="url(#paint0_linear_203_19)"/>
<g clip-path="url(#clip0_203_19)">
<path d="M40.5 38.2615C40.4583 38.8032 40.2292 39.199 39.8125 39.449L29.25 45.324C29.0417 45.4907 28.7917 45.574 28.5 45.574C28.2083 45.574 27.9583 45.4907 27.75 45.324L17.1875 39.449C16.7708 39.199 16.5417 38.8032 16.5 38.2615V26.2615C16.5417 25.7199 16.7708 25.324 17.1875 25.074L27.75 19.199C27.9583 19.0324 28.2083 18.949 28.5 18.949C28.7917 18.949 29.0417 19.0324 29.25 19.199L39.8125 25.074C40.2292 25.324 40.4583 25.7199 40.5 26.2615V38.2615ZM28.5 21.824L20.5625 26.2615L28.5 30.699L36.4375 26.2615L28.5 21.824ZM19.1875 37.449L27.1875 42.0115V33.0115L19.1875 28.5115V37.449ZM37.8125 37.449V28.5115L29.8125 33.0115V42.0115L37.8125 37.449Z" fill="white"/>
</g>
<defs>
<linearGradient id="paint0_linear_203_19" x1="32.5" y1="0.261536" x2="32.5" y2="64.2615" gradientUnits="userSpaceOnUse">
<stop stop-color="#328BC9" stop-opacity="0.7"/>
<stop offset="1" stop-color="#59CEB5"/>
</linearGradient>
<clipPath id="clip0_203_19">
<rect width="32" height="32" fill="white" transform="matrix(1 0 0 -1 16.5 48.2615)"/>
</clipPath>
</defs>
</svg>
