<svg width="24" height="24" viewBox="0 0 24 24" fill="none" xmlns="http://www.w3.org/2000/svg">
<path d="M7.45312 21.5156L8.8125 20.1562L12.6094 23.9531L11.9531 24C8.73438 23.9375 6.02344 22.875 3.82031 20.8125C1.61719 18.75 0.34375 16.1406 0 12.9844H1.5C1.71875 14.8906 2.35156 16.5859 3.39844 18.0703C4.44531 19.5547 5.79688 20.7031 7.45312 21.5156ZM16.4531 2.48438L15.0938 3.84375L11.2969 0.046875L11.9531 0C15.1719 0.0625 17.8828 1.125 20.0859 3.1875C22.2891 5.25 23.5625 7.85938 23.9062 11.0156H22.4062C22.1875 9.10938 21.5547 7.41406 20.5078 5.92969C19.4609 4.44531 18.1094 3.29688 16.4531 2.48438ZM5.95312 17.0156C6.07812 16.0156 6.82812 15.25 8.20312 14.7188C9.57812 14.1875 10.8281 13.9219 11.9531 13.9219C13.0781 13.9219 14.3281 14.1875 15.7031 14.7188C17.0781 15.25 17.8281 16.0156 17.9531 17.0156V18H5.95312V17.0156ZM14.9531 9C14.9219 9.84375 14.625 10.5469 14.0625 11.1094C13.5 11.6719 12.7969 11.9531 11.9531 11.9531C11.1094 11.9531 10.4062 11.6719 9.84375 11.1094C9.28125 10.5469 9 9.84375 9 9C9 8.15625 9.28125 7.45312 9.84375 6.89062C10.4062 6.32812 11.1094 6.04688 11.9531 6.04688C12.7969 6.04688 13.5 6.32812 14.0625 6.89062C14.625 7.45312 14.9219 8.15625 14.9531 9Z" fill="#707070"/>
</svg>
